<svg width="64" height="64" viewBox="0 0 64 64" fill="none" xmlns="http://www.w3.org/2000/svg">
<g clip-path="url(#clip0_458_1766)">
<path d="M3.99996 4.35447C-1.02937 9.57847 -3.8296e-05 15.1278 -3.8296e-05 31.9865C-3.8296e-05 45.9865 -2.44271 60.0211 10.3413 63.3251C14.3333 64.3518 49.704 64.3518 53.6906 63.3198C59.0133 61.9465 63.344 57.6291 63.936 50.1011C64.0186 49.0505 64.0186 14.9411 63.9333 13.8691C63.304 5.85047 58.368 1.22913 51.864 0.293132C50.3733 0.0771316 50.0746 0.0131315 42.4266 -0.000201799C15.2986 0.0131315 9.35196 -1.19487 3.99996 4.35447Z" fill="url(#paint0_linear_458_1766)"/>
<path d="M31.9947 8.37046C22.3121 8.37046 13.1174 7.50913 9.60541 16.5225C8.15474 20.2451 8.36541 25.0798 8.36541 32.0025C8.36541 38.0771 8.17074 43.7865 9.60541 47.4798C13.1094 56.4985 22.3787 55.6345 31.9894 55.6345C41.2614 55.6345 50.8214 56.5998 54.3761 47.4798C55.8294 43.7198 55.6161 38.9571 55.6161 32.0025C55.6161 22.7705 56.1254 16.8105 51.6481 12.3358C47.1147 7.80246 40.9841 8.37046 31.9841 8.37046H31.9947ZM29.8774 12.6291C50.0747 12.5971 52.6454 10.3518 51.2267 41.5438C50.7227 52.5758 42.3227 51.3651 31.9974 51.3651C13.1707 51.3651 12.6294 50.8265 12.6294 31.9918C12.6294 12.9385 14.1227 12.6398 29.8774 12.6238V12.6291ZM44.6081 16.5518C43.0427 16.5518 41.7734 17.8211 41.7734 19.3865C41.7734 20.9518 43.0427 22.2211 44.6081 22.2211C46.1734 22.2211 47.4427 20.9518 47.4427 19.3865C47.4427 17.8211 46.1734 16.5518 44.6081 16.5518ZM31.9947 19.8665C25.2934 19.8665 19.8614 25.3011 19.8614 32.0025C19.8614 38.7038 25.2934 44.1358 31.9947 44.1358C38.6961 44.1358 44.1254 38.7038 44.1254 32.0025C44.1254 25.3011 38.6961 19.8665 31.9947 19.8665ZM31.9947 24.1251C42.4081 24.1251 42.4214 39.8798 31.9947 39.8798C21.5841 39.8798 21.5681 24.1251 31.9947 24.1251Z" fill="white"/>
</g>
<defs>
<linearGradient id="paint0_linear_458_1766" x1="4.12268" y1="59.912" x2="63.6039" y2="8.43173" gradientUnits="userSpaceOnUse">
<stop stop-color="#FFDD55"/>
<stop offset="0.5" stop-color="#FF543E"/>
<stop offset="1" stop-color="#C837AB"/>
</linearGradient>
<clipPath id="clip0_458_1766">
<rect width="64" height="64" fill="white"/>
</clipPath>
</defs>
</svg>
