<svg width="64" height="64" viewBox="0 0 64 64" fill="none" xmlns="http://www.w3.org/2000/svg">
<path d="M31.9999 0C25.4204 0 17.8982 10.2192 17.8982 22.7796C17.8982 39.0085 31.1073 62.6419 31.5773 63.6409C31.6849 63.8698 31.8386 63.9999 31.9998 63.9999C32.3076 63.9999 32.6011 63.8696 32.8064 63.6409C33.7037 62.6419 54.7794 39.0085 54.7794 22.7796C54.7796 10.2192 44.5609 0 31.9999 0ZM31.9999 34.7119C25.4099 34.7119 20.0677 29.3698 20.0677 22.7796C20.0677 16.1895 25.4099 10.8475 31.9999 10.8475C38.5899 10.8475 43.9322 16.1896 43.9322 22.7798C43.9322 29.3699 38.5899 34.7119 31.9999 34.7119Z" fill="#FF7272"/>
<path opacity="0.8" d="M31.5776 63.641C31.1075 62.642 17.8985 39.0086 17.8985 22.7798C17.8983 10.2193 25.4206 0 32.0001 0C19.4391 0 9.22046 10.2192 9.22046 22.7796C9.22046 39.0085 30.2962 62.6419 31.1935 63.6409C31.399 63.8698 31.6925 63.9999 32.0001 63.9999C31.8388 64 31.6852 63.8697 31.5776 63.641Z" fill="#FF3636"/>
</svg>
